/* XPM */
static char *out[] = {
/* columns rows colors chars-per-pixel */
"100 100 43 1 ",
"  c #050303",
". c #090707",
"X c #0D0A0A",
"o c #130E0E",
"O c #161111",
"+ c #1C1414",
"@ c #1F1818",
"# c #201717",
"$ c #241A1A",
"% c #2A1E1E",
"& c #2D2121",
"* c #332424",
"= c #382727",
"- c #362828",
"; c #3C2A2A",
": c #422E2E",
"> c #453131",
", c #4B3535",
"< c #4E3838",
"1 c #543B3B",
"2 c #593E3E",
"3 c #5D4141",
"4 c #654646",
"5 c #674848",
"6 c #694A4A",
"7 c #714F4F",
"8 c #6F5050",
"9 c #745151",
"0 c #7A5656",
"q c #7E5959",
"w c #835C5C",
"e c #885F5F",
"r c #8C6262",
"t c #916666",
"y c #956969",
"u c #9A6C6C",
"i c #A47373",
"p c #AA7777",
"a c #AB7979",
"s c #B27D7D",
"d c #B78080",
"f c #C28888",
"g c #C88C8C",
/* pixels */
".++##O. ####++O+++o X####++++++..######+o o$####+#+o.o$#####+++#+o +$##+#+..#####++++X.##+#+++++++oo",
"$4242,$#333322111,:o:333332322:#+3333332:o13333322,:o244333332331%o2433232$#33333222,#$3333333221,:+",
"*55553$$64646664462o,4466664464%$7466646:o444456464:+664664446464:+3664673%%746464644%=644646466662#",
"*55554%*74464644441o26444466663%#7446446,o664664464:O764664464444:+3446444%=744446463%=664666444463#",
"*55554%*64644446461o16644646463%%7444466,o764464466>+666644446445:#5644463&&764666464%*655445544643#",
"=65554%*76446444462O26456464444%%7464664,o766644446,+746446644644:$6446464$=w44444644%:646644556463#",
"=65544%=74446464462O26554444644&&w466446,+964444444,#w44644444646:$6456544=*736644664%:754544464464%",
"=65544%=75646464452O76464646464%%7446444,O9664446461#e64666464646>$6555546*:w46446544*>764564644463%",
":74664*>e6446444663O77665565444*=w344646,+e744446661#i06464664566>&9665556;=e56564444*,w34445664663%",
"%w9664#$yywwww9w942.2ew77966541$+ww76762:X6ww99w966,.eptweeew6w97>Ow965632%#yewww6673#*rw644443211,+",
" Xoooo..oooooXooo.. .oOoooOoooo..XoXXooXX..OOOOoOooX.XO+oO+oOoOOO. O$$####oo+##Oo###+oo##+oo#$###++.",
" =:::::::::::::*# =,>::%o:,>>:::::$.:,,,,>,>::::$.=>>::::::::=:=*#o1332322222,:$#3332211,,$%433332,#",
"X364664666463442&.26555:+565545543:o366446666543;X266455646444442*#746655556554*$764666653&*6555562#",
"o444466444444463*.16555,+655545566:+766444446444:X365546444444444*$946455555554*#w64444454&*5455563#",
"o664644444444443*.16655,#755444564:+764444644644:o664565446656464;#746555554555*%645644654*=6445552#",
"O764464666446664*X35555>#655545544>+446464464446:O764644544554654:$w45655555545=%w44464655*:7455563#",
"o646445664644664=X346461#944555465>+965544644655:O665555455555555:%045555455554=%744644444=>7446454#",
"O964446446466464=X24464,$q54454455,+054564544555>O754545545555555>%w55555555545:%w46444444=:7454453%",
"+t64434444464444=X334441$w55454455,+y65446555455,Oe64544555555555>&u55455545445;:w34444454:>7446663$",
"Xypywwww77w76446=Xww7761@rq09909671Oaieeww099778,oeiurqew99086864:+iitrrrq00090=#yw7www679=*w765363#",
" o$###+#+#++OoOO. %:::=+.*,,>>,;;;&.*211<1,>>>>:%.o&%%%%%$$%$$$@+o +%%%%%%%$$$$o #$##$#+++..oooXooo.",
" +##+++++##++++OX.::==:===***%o+;;;==**&%o$>:;;:>:::=%X=>::==;-***+O::::;=;==*$.*>:::::*X#>:::::==*o",
"o23333343332122,%%766444455441$;655564441$>5555565444;+36546554441%-6555545554=o36446641+:746564441#",
"+444646666666662%*764644555552$,956554453%,6555565554:+35545555553%=6545545455:O46544442+:646444553#",
"o446466644655662%&745444555553$>955445453&<6555555555:@65544555554%-5555465464:o36446442+,646446552#",
"#646464464644554%:955564544553%:654555643%15555555555>@55555554553%;6554546646>O46644663+>744464442#",
"+746644644644654&:w44656445654%,945656553&16555555555>@85455544654%-6555644564,O76464443O1964464553%",
"#746644664656444&:w46444555444%,954554454&15455445655>@95545556444&=9555556446,O66444464#2946664553%",
"#w43444464644643*>t44454455554%,755545455&15555556655>@84444564654*>7444464444,O73446443#2765645543%",
"#iwww97799766774*:frw099777776*1y98977666&40986656658<$ue00q099797*>ew999777761owww77664+2r97797776#",
".1763432322>,,,:Oo694644423321++43333111<@%<<>>;=*;;-$o;311311<,<<++13112>::::$ %2,:==:%.#1<>>,,;::o",
"#:=**$O::::::=:=:=%O%>:>:::;;&o+--=**-*--&&&&*&&&&&&&&&%@X*:;;:=*%X$>>:;*o+::::::&+.*::===**&**%&%%o",
",6644,:665565554551&365555555<+;555555444444344434344231*+5565555<+;85551$;6555453%$556455544454421%",
"264561:744555555563&1555555553@;655555555544444655644454=+45555561+;65561@16555554*%664645565455441#",
",45551:944445454553&3645555553+;655555555555445555444654=+45455551@;65551+>6455544*%555455555555462#",
"165451:744555555564&<655455352+>656555455445544644644554=+55555553+>65553$,6454554**954545455555443%",
"344661>754455555554*3655455453+3645555445455635546554464;@65555553+<65553$16555555*=955544655554462%",
"466442>w44445655554*5855555451+3655445555444655546564664:@75455453@<65564$19555545==044546455555644%",
"3444621y34646655555=6644545553@3754455445444555544565446:@05555453@>65653$16555554=>r44444444564444%",
"7977631grw099977966-9t98809685+8yee096970888888666666564;@r9777663@3q9984$3e966876=*srewwre00075763#",
"$,:::&o26423121<1,>O@1>>>>>;;;X@1111;>,,<;;,;>>-*;;;*&&&@X;13<<,;;o+,>;;&o$31<>>,>+X&-*&**&&*&%###+X",
" o+Oo++oooOoOOOoX O++OOO.+@+@@@+++oX+@@@@@@@@@@+Oo+@@@@@@@@++++++Oo----&**&%%&%OX***&&&&%%X+==*=*=#o",
"X14333222222111:$o13221-@44333333<&@35433333333<&+<333331213<33<>&%536554544441%&654544441%>6654441+",
"o454644655555554&o35555:%655556655;@955565555555-@555555666556353**965555545554&=955555554&;6555461#",
"+444446455555543&X25455:%955555555;&955536555553-@855555556555554*&955555555454&=955554553&;5555562+",
"#666444455555553&o45455:%945555555;$855556558355;@655555555355554*&844555555543&=055544554%,6545552+",
"#764466445555544*O44555,%055555555;$q55555555556;$835553555555555=*045554455554*;055554554&,6554462+",
"$946444655555544*O45555>&q54455555>&055555555553;$865555555555555=-w55555555554*>q55454555*,6555552+",
"$w44444565445544*O65555,&q55455436;&r65655555555;$q85555555454555;;r35555555555-:w44444644*,6446563+",
"$pw9777767766666*+95555,&r55545585<&d86655555555,%dqq888885868656;-dq9886866666=:y67767666*1w676664#",
".4997476434211>>+X88565>+qw0900785;+yirqqrq80q86;O3qq88868443333<&O0r0866655331%O56642321,+#31,::=&o",
".++#++..#####+#+++@+$*&%@%-&&&*#@&&@&*&&&@*-----&@@@O@%&$%$%@@@@@OX@@@$@@@oo$$@@#++#+XX###++++++o+o.",
"*4333,+$434222211,=O<533333321>$&3333333-@333333333-@433343333331*$3434331$-53342222,#*44343223211:+",
":66463#*6546454655,O15555555563$-6586555;@886566546;%855666555554=%5455563&;855556663$:46466666666,+",
"*44443#=6644466445,+35555545553$-8565566;@555566545<%855555555554-*5455555&;655555553$:764446466662#",
":44663$:6665444655<+36555555554$-6555556;$865833555;%855555655554-*5455553%;955554453#:644464644443#",
":65563$:74555555551+36555555563$-6855555,$055566358;&q65565555555;&6555544&,945444564%:655546655552#",
":64454$>74555555561+65553555563&;8355555;$q56366856;&q53555555556;-8555544&>055546554%,755464464563+",
",75563$,74556464551+66555655555&>9355555;&r366335533&r55555555555;;8555544%1w45444544&,744556644553#",
"275654$1w6665465551@q6655655555&<r665555,&r86686656<&a85655555555>-8555554*1r65555664&3955646466554#",
"=97452+*tttww999663X3rq0998665<@&r986883-O0rq0qq868<+titr0qq88888;$0654522$*uyew07442#:e7734632211>o",
" #####oO#$#$#o+$$$@O+@+@%$$$$@+XX&&&&&@O@+@&&$&@+$&@+@&&$&&&%$$$+++$%$$$#$OO#$#$$#+##oo###o+%$$$##+.",
"%3232223212,:#*41232<;+>33323<;+-3333>@*33333<<&+333113<<<<<<3,;$>33133211111,,1,,,,,,,,,:#,433322,+",
":745566555562#:6555561@25555653@;65553&;8535833&&853555566583333&1555555555556556666666662%16646552#",
":744644446462#:7446661$44644542#:44442$,7444654**655555555554442&2554565555555445555465463%14554462#",
":646644664643#:6644441$36445662+:54452$,7444444=*755555555544552*3555555555555545555566563&26455642#",
">944646464463$,6644462$44444462O,65552%,7665554;=q45555555555553*4554555555555555544556454*65545463#",
",056554646663$,6444642%76446663#,65564$,6545554=-745554455554554=6555555565555545445555553&66554444%",
",w45545644444%:6464463%75555454#>65563$,7445554;;045544555555553=0554555565555444455454463&75555464%",
"3y44444444464%36444442$w6555464#,44544%17455455;:y76676666665554:r655655655555545556656464&96555644#",
":styewwww7w74#,ww74443#9w797752O:w7663#>e006556;@wr0qw755664364<#7wew9677766544433333321,,O5w997742+",
".&;:===***&&%+#*#%,,,,=:,>,>::##:>>:::*&:&>11<,>;;;;=%O:>>::;;***&#%,,>>>>>:==%o;>>::::&o$:>,,>,>:=o",
"o2332332222111,:#*75545454443,#:664444441#,5455666443-@36454454431#-6554454443*o3644644>o,664445441+",
"$644666446444662#:745555555562#,646644462#14455446644;$44664555543$=6654555554;+66446441O1746446461o",
"$646444664444642#>955555555552#,664446442#,7554456464;$55656555543$>6555544544=O46464442+2746554661+",
"#546666546664443$>955555455552#,666644643%36466656445;$45545555544$>8456455554:+64644662o2644555462+",
"%755554446446463%,955555545554#,644446443%26455664454:$65554555444$:6565556554:+64646442O3744444642+",
"&w55556644464664%>045565455554$2w44444663%26445555554:%94554555544%,9444555565:+74444663O2745446663#",
"=e45444464446464%1r45555555544$3744446663%36555554455:%94445455544&17444554556,+w6466463O3744446443#",
"=p97797777766664&2s00997767654$4r77776664$4w676666666,$ywq99997966%3r979976766,+w7666763+4w97777664#",
"Xwww6ww7444321,,##w9ww7964762,#&ww444421,o=3,,>>:::>,=+3ww7464443,+%w64363,111*o:311,::=o&76333322,o",
"%,:,,:;:#:,,,,,,::%#,,,,,,:%+,,>:;#o=;;;;:=====***%o%12,:,,1,,,,;+:2,1111;o#1111,,,::O$211,111,,,>=o",
",5644443*266666646>:6446464:$46544&&65545664444433,#,666546664461#26446642+:644646642#,64446466666,+",
",5464444*464664454,:7446444:%44563**644554554645561#,745446444641#34446442+;w44446462#,744646644441+",
",6556454=464664465,:6444466:%65644*&646655445555552#,645654444662#44666643#,w24464443+,664644466461+",
"16564454=6645545661:7446464:&65544==w44455555454551#,555546464462#46464443+,644446463#1646444444642+",
"34554544=6655464461:7646644>&65544==w24455454654553#2w44444646443%74644642+,644464663#3646464446662+",
"5w456465;w664464641:7346456>&64444=;w34455545554553#,w44664446443%66446463#1w44444644#4w44666464442#",
"6w134344;w4444446411w444464>%66444=,w44443434443553#7e44446444343#w2344444#1w33332433#wr44444444343#",
"2www6ww4*wew776w762>tw76777,%w7776==pyrwwwwww76ww73+2fuewrww4ww66#www6w764+:ywwwwwww6+1gueewew7w7w4#",
"#342121:*:421111,,:%131>1>&%+,,,:;##:1,::,::;&;1,,:%*22121,=;111,#;,=,,,::%%,,,*,2,,:&%,2211::1111;o",
":34343333422323232232212,%$33222233321112,,,:%:43444443332:o,334343:o,43443432=o23334443221,%=4333,#",
"1466446455555555555666444&:666466466466644663&,75655555565,+,655444,o364646544:+446465545554*:44461#",
"1644444465555555455564664%:746444446644444444&1645454455642+1654646:+454464564:#364655445554=:54641#",
"1444464655555555465444464=:744466444444444464*,655555455661+2665644,+644646646,#646455555545::65461#",
"2464464455555445455544644=:744644464466464464=2655554455461+1544444,+w46444464,#644654454545:,65443#",
"6444464446446446545556644=,w44646464446646464=3745444644552+2546646,+w34464455,#745554545555;,44663#",
"w444446444644664446464446=:w34464464444444444;3w46545544453#35444661+w44654455,%645544555555:,64444#",
"www66667w6763w76666464464=,uw44w66w4466466664;we76666763533#46554661otw6666365,%w34465666656:163433#",
"=7w6w644433214331:,;:,::;##eewwwwwwww6ww66432%:prtwwrewwww1o,w65w22:.wrwrwww74;owwww4662331,%:ww7w2+"
};
